<svg width="16" height="16" viewBox="0 0 16 16" fill="none" xmlns="http://www.w3.org/2000/svg">
<path d="M15.5554 7.90845C15.0801 7.42442 14.9741 6.68904 15.2934 6.09034C15.5214 5.66365 15.5374 5.15629 15.3361 4.7156C15.1354 4.27558 14.7408 3.95422 14.2688 3.84755C13.6082 3.69754 13.1209 3.13618 13.0669 2.46014C13.0276 1.97811 12.7663 1.54142 12.359 1.28007C11.953 1.01806 11.4477 0.961388 10.9924 1.1274C10.3551 1.35874 9.64179 1.14873 9.23115 0.610035C8.93783 0.226013 8.48186 0 7.99789 0C7.51459 0 7.05861 0.226013 6.7653 0.610035C6.35666 1.1494 5.64337 1.35941 5.00608 1.12806C4.55144 0.962721 4.04614 1.01939 3.63949 1.28074C3.23285 1.54209 2.97087 1.97878 2.9322 2.46081C2.87754 3.13684 2.3909 3.69888 1.73028 3.84822C1.25831 3.95489 0.863667 4.27624 0.663012 4.71627C0.462358 5.15629 0.478357 5.66432 0.706343 6.09034C1.02566 6.68838 0.919663 7.42442 0.445026 7.90845C0.105714 8.25313 -0.052943 8.73649 0.0157194 9.21519C0.0843818 9.69388 0.37303 10.1132 0.795671 10.3486C1.38763 10.6786 1.69695 11.3553 1.55829 12.0187C1.4603 12.492 1.58762 12.9841 1.90427 13.3494C2.22158 13.7154 2.69089 13.9121 3.17219 13.8815C3.84948 13.8394 4.47411 14.2415 4.71676 14.8742C4.88942 15.3262 5.26339 15.6709 5.72803 15.8069C6.19134 15.9429 6.69264 15.8549 7.08195 15.5689C7.62791 15.1669 8.37253 15.1669 8.91783 15.5689C9.30714 15.8556 9.80844 15.9436 10.2717 15.8069C10.7364 15.6709 11.1104 15.3255 11.2837 14.8742C11.5257 14.2415 12.151 13.8388 12.8276 13.8815C13.3102 13.9121 13.7789 13.7154 14.0955 13.3494C14.4122 12.9841 14.5401 12.492 14.4415 12.0187C14.3035 11.3553 14.6121 10.6786 15.2048 10.3486C15.6267 10.1126 15.9147 9.69388 15.9841 9.21519C16.0534 8.73649 15.8941 8.25313 15.5554 7.90845ZM7.16661 11.5287L4.16679 8.61915L5.40472 7.38108L7.16661 9.05185L10.9284 5.19563L12.1663 6.4337L7.16661 11.5287Z" fill="#BACB3B"/>
</svg>
