<svg width="139" height="58" viewBox="0 0 139 58" fill="none" xmlns="http://www.w3.org/2000/svg">
<path d="M40.4926 19.5156V38H36.0365V19.5156H40.4926ZM51.5248 19.5156L44.3646 28.8848L40.1752 33.4678L39.3627 29.3799L42.0414 25.3174L46.0277 19.5156H51.5248ZM46.2562 38L41.4828 29.6719L44.9486 27.1201L51.5248 38H46.2562ZM57.4027 19.5156V38H52.9594V19.5156H57.4027ZM64.8041 36.3242L68.4857 19.5156H70.682L71.8754 20.9502L67.9525 38H65.5277L64.8041 36.3242ZM63.8265 19.5156L66.9369 36.4512L66.1371 38H63.3314L59.4086 19.5156H63.8265ZM73.8939 36.3623L76.9789 19.5156H81.3842L77.4613 38H74.6683L73.8939 36.3623ZM72.2689 19.5156L76.0394 36.4258L75.2777 38H72.8529L68.8412 20.9248L70.0853 19.5156H72.2689ZM87.8715 19.5156V38H83.4281V19.5156H87.8715Z" fill="#BACB3B"/>
<path d="M13.6243 44.5551C21.1407 44.5551 27.2547 38.3692 27.2547 30.7705C27.2547 24.0564 22.4036 19.9898 14.2436 19.7994C14.3043 18.534 14.6322 15.5977 16.4293 15.3704C16.7572 15.3274 16.9939 15.0202 16.9514 14.6824C16.915 14.3506 16.6114 14.1111 16.2775 14.1541C15.1684 14.2931 14.4398 14.9758 13.9559 15.8397C11.7573 13.3687 9.77862 13.7618 8.16 14.0927C7.0975 14.3015 6.18679 14.492 5.25788 13.9514C5.02108 13.8162 4.72359 13.8592 4.5293 14.0558C4.33501 14.2462 4.29858 14.5534 4.43214 14.793C5.78001 17.1887 7.44358 18.5769 9.36821 18.9209C9.69001 18.9824 10.0118 19.0069 10.3154 19.0069C11.4404 19.0069 12.4313 18.6619 13.1672 18.2969C13.0744 18.8813 13.0371 19.4137 13.0232 19.7994C4.85714 19.9837 0 24.0564 0 30.7705C0 38.3692 6.10786 44.5551 13.6243 44.5551ZM21.3109 25.3893C21.5475 25.1619 21.9483 25.1619 22.173 25.3893C22.288 25.5059 22.3491 25.6658 22.3491 25.8254C22.3491 25.9913 22.288 26.1448 22.173 26.2615C22.0633 26.3722 21.9056 26.4397 21.7419 26.4397C21.5836 26.4397 21.4259 26.3722 21.3109 26.2615C21.2012 26.1448 21.1348 25.9853 21.1348 25.8254C21.1348 25.6658 21.2012 25.5059 21.3109 25.3893ZM21.3109 29.2532C21.5415 29.0198 21.9483 29.0258 22.173 29.2532C22.288 29.3698 22.3491 29.5234 22.3491 29.6893C22.3491 29.8491 22.288 30.0087 22.173 30.1254C22.0633 30.2361 21.9056 30.3036 21.7419 30.3036C21.5836 30.3036 21.4259 30.2361 21.3109 30.1194C21.2012 30.0087 21.1348 29.8491 21.1348 29.6893C21.1348 29.5297 21.2012 29.3698 21.3109 29.2532ZM19.1734 28.2456C19.2891 28.3563 19.3495 28.5159 19.3495 28.6758C19.3495 28.8353 19.2891 28.9952 19.1734 29.1119C19.0578 29.2226 18.906 29.29 18.7424 29.29C18.5847 29.29 18.427 29.2226 18.3173 29.1119C18.2022 28.9952 18.1352 28.8353 18.1352 28.6758C18.1352 28.5159 18.2022 28.3563 18.3173 28.2396C18.5361 28.0183 18.9487 28.0123 19.1734 28.2456ZM17.4979 24.2897C17.7226 24.0563 18.1293 24.0563 18.354 24.2897C18.4691 24.4004 18.5301 24.5599 18.5301 24.7198C18.5301 24.8857 18.4691 25.0452 18.354 25.1559C18.2443 25.2726 18.0866 25.3341 17.9289 25.3341C17.7647 25.3341 17.6129 25.2726 17.4979 25.1559C17.3822 25.0452 17.3218 24.8857 17.3218 24.7198C17.3218 24.5599 17.3822 24.4004 17.4979 24.2897ZM14.5594 27.14C14.7841 26.9127 15.1968 26.9127 15.415 27.14C15.5306 27.2504 15.5911 27.4103 15.5911 27.5699C15.5911 27.7357 15.5306 27.8956 15.415 28.0063C15.3059 28.123 15.1481 28.1841 14.9839 28.1841C14.8262 28.1841 14.6685 28.123 14.5594 28.0063C14.4438 27.8956 14.3833 27.7357 14.3833 27.5699C14.3833 27.4103 14.4438 27.2504 14.5594 27.14Z" fill="#BACB3B"/>
</svg>
