<svg width="52" height="19" viewBox="0 0 52 19" fill="none" xmlns="http://www.w3.org/2000/svg">
<path d="M4.49255 0.515625V19H0.036499V0.515625H4.49255ZM15.5248 0.515625L8.36462 9.88477L4.17517 14.4678L3.36267 10.3799L6.04138 6.31738L10.0277 0.515625H15.5248ZM10.2562 19L5.48279 10.6719L8.94861 8.12012L15.5248 19H10.2562ZM21.4027 0.515625V19H16.9594V0.515625H21.4027ZM28.8041 17.3242L32.4857 0.515625H34.682L35.8754 1.9502L31.9525 19H29.5277L28.8041 17.3242ZM27.8265 0.515625L30.9369 17.4512L30.1371 19H27.3314L23.4086 0.515625H27.8265ZM37.8939 17.3623L40.9789 0.515625H45.3842L41.4613 19H38.6683L37.8939 17.3623ZM36.2689 0.515625L40.0394 17.4258L39.2777 19H36.8529L32.8412 1.9248L34.0853 0.515625H36.2689ZM51.8715 0.515625V19H47.4281V0.515625H51.8715Z" fill="#BACB3B"/>
</svg>
